<mxfile host="app.diagrams.net" modified="2023-10-01T16:17:02.102Z" agent="Mozilla/5.0 (Windows NT 10.0; Win64; x64) AppleWebKit/537.36 (KHTML, like Gecko) Chrome/117.0.0.0 Safari/537.36" etag="3yG0qRKKwyyguq86XF4w" version="22.0.0" type="google">
  <diagram id="R2lEEEUBdFMjLlhIrx00" name="Page-1">
    <mxGraphModel grid="1" page="1" gridSize="10" guides="1" tooltips="1" connect="1" arrows="1" fold="1" pageScale="1" pageWidth="850" pageHeight="1100" math="0" shadow="0" extFonts="Permanent Marker^https://fonts.googleapis.com/css?family=Permanent+Marker">
      <root>
        <mxCell id="0" />
        <mxCell id="1" parent="0" />
        <mxCell id="wOlAUhnXYzGdByud8Wmd-1" value="User" style="shape=table;startSize=30;container=1;collapsible=1;childLayout=tableLayout;fixedRows=1;rowLines=0;fontStyle=1;align=center;resizeLast=1;" vertex="1" parent="1">
          <mxGeometry x="370" y="870" width="150" height="90" as="geometry" />
        </mxCell>
        <mxCell id="T8637z6zszp0V2nRVoMu-17" style="shape=tableRow;horizontal=0;startSize=0;swimlaneHead=0;swimlaneBody=0;fillColor=none;collapsible=0;dropTarget=0;points=[[0,0.5],[1,0.5]];portConstraint=eastwest;top=0;left=0;right=0;bottom=0;" vertex="1" parent="wOlAUhnXYzGdByud8Wmd-1">
          <mxGeometry y="30" width="150" height="30" as="geometry" />
        </mxCell>
        <mxCell id="T8637z6zszp0V2nRVoMu-18" value="Username" style="shape=partialRectangle;connectable=0;fillColor=none;top=0;left=0;bottom=0;right=0;align=left;spacingLeft=6;overflow=hidden;fontStyle=5" vertex="1" parent="T8637z6zszp0V2nRVoMu-17">
          <mxGeometry width="150" height="30" as="geometry">
            <mxRectangle width="150" height="30" as="alternateBounds" />
          </mxGeometry>
        </mxCell>
        <mxCell id="wOlAUhnXYzGdByud8Wmd-5" value="" style="shape=tableRow;horizontal=0;startSize=0;swimlaneHead=0;swimlaneBody=0;fillColor=none;collapsible=0;dropTarget=0;points=[[0,0.5],[1,0.5]];portConstraint=eastwest;top=0;left=0;right=0;bottom=0;" vertex="1" parent="wOlAUhnXYzGdByud8Wmd-1">
          <mxGeometry y="60" width="150" height="30" as="geometry" />
        </mxCell>
        <mxCell id="wOlAUhnXYzGdByud8Wmd-7" value="Password" style="shape=partialRectangle;connectable=0;fillColor=none;top=0;left=0;bottom=0;right=0;align=left;spacingLeft=6;overflow=hidden;" vertex="1" parent="wOlAUhnXYzGdByud8Wmd-5">
          <mxGeometry width="150" height="30" as="geometry">
            <mxRectangle width="150" height="30" as="alternateBounds" />
          </mxGeometry>
        </mxCell>
        <mxCell id="wOlAUhnXYzGdByud8Wmd-14" value="CrimeType" style="shape=table;startSize=30;container=1;collapsible=1;childLayout=tableLayout;fixedRows=1;rowLines=0;fontStyle=1;align=center;resizeLast=1;" vertex="1" parent="1">
          <mxGeometry x="320" y="95" width="150" height="120" as="geometry" />
        </mxCell>
        <mxCell id="T8637z6zszp0V2nRVoMu-5" style="shape=tableRow;horizontal=0;startSize=0;swimlaneHead=0;swimlaneBody=0;fillColor=none;collapsible=0;dropTarget=0;points=[[0,0.5],[1,0.5]];portConstraint=eastwest;top=0;left=0;right=0;bottom=0;" vertex="1" parent="wOlAUhnXYzGdByud8Wmd-14">
          <mxGeometry y="30" width="150" height="30" as="geometry" />
        </mxCell>
        <mxCell id="T8637z6zszp0V2nRVoMu-6" value="CrimeTypeId" style="shape=partialRectangle;connectable=0;fillColor=none;top=0;left=0;bottom=0;right=0;align=left;spacingLeft=6;overflow=hidden;fontStyle=5" vertex="1" parent="T8637z6zszp0V2nRVoMu-5">
          <mxGeometry width="150" height="30" as="geometry">
            <mxRectangle width="150" height="30" as="alternateBounds" />
          </mxGeometry>
        </mxCell>
        <mxCell id="wOlAUhnXYzGdByud8Wmd-18" value="" style="shape=tableRow;horizontal=0;startSize=0;swimlaneHead=0;swimlaneBody=0;fillColor=none;collapsible=0;dropTarget=0;points=[[0,0.5],[1,0.5]];portConstraint=eastwest;top=0;left=0;right=0;bottom=0;" vertex="1" parent="wOlAUhnXYzGdByud8Wmd-14">
          <mxGeometry y="60" width="150" height="30" as="geometry" />
        </mxCell>
        <mxCell id="wOlAUhnXYzGdByud8Wmd-20" value="CrimeTypeDesc" style="shape=partialRectangle;connectable=0;fillColor=none;top=0;left=0;bottom=0;right=0;align=left;spacingLeft=6;overflow=hidden;" vertex="1" parent="wOlAUhnXYzGdByud8Wmd-18">
          <mxGeometry width="150" height="30" as="geometry">
            <mxRectangle width="150" height="30" as="alternateBounds" />
          </mxGeometry>
        </mxCell>
        <mxCell id="wOlAUhnXYzGdByud8Wmd-98" style="shape=tableRow;horizontal=0;startSize=0;swimlaneHead=0;swimlaneBody=0;fillColor=none;collapsible=0;dropTarget=0;points=[[0,0.5],[1,0.5]];portConstraint=eastwest;top=0;left=0;right=0;bottom=0;" vertex="1" parent="wOlAUhnXYzGdByud8Wmd-14">
          <mxGeometry y="90" width="150" height="30" as="geometry" />
        </mxCell>
        <mxCell id="wOlAUhnXYzGdByud8Wmd-100" value="Part" style="shape=partialRectangle;connectable=0;fillColor=none;top=0;left=0;bottom=0;right=0;align=left;spacingLeft=6;overflow=hidden;" vertex="1" parent="wOlAUhnXYzGdByud8Wmd-98">
          <mxGeometry width="150" height="30" as="geometry">
            <mxRectangle width="150" height="30" as="alternateBounds" />
          </mxGeometry>
        </mxCell>
        <mxCell id="wOlAUhnXYzGdByud8Wmd-65" value="PoliceStation" style="shape=table;startSize=30;container=1;collapsible=1;childLayout=tableLayout;fixedRows=1;rowLines=0;fontStyle=1;align=center;resizeLast=1;" vertex="1" parent="1">
          <mxGeometry x="53" y="83" width="150" height="180" as="geometry" />
        </mxCell>
        <mxCell id="T8637z6zszp0V2nRVoMu-3" style="shape=tableRow;horizontal=0;startSize=0;swimlaneHead=0;swimlaneBody=0;fillColor=none;collapsible=0;dropTarget=0;points=[[0,0.5],[1,0.5]];portConstraint=eastwest;top=0;left=0;right=0;bottom=0;" vertex="1" parent="wOlAUhnXYzGdByud8Wmd-65">
          <mxGeometry y="30" width="150" height="30" as="geometry" />
        </mxCell>
        <mxCell id="T8637z6zszp0V2nRVoMu-4" value="StationId" style="shape=partialRectangle;connectable=0;fillColor=none;top=0;left=0;bottom=0;right=0;align=left;spacingLeft=6;overflow=hidden;verticalAlign=middle;fontStyle=5" vertex="1" parent="T8637z6zszp0V2nRVoMu-3">
          <mxGeometry width="150" height="30" as="geometry">
            <mxRectangle width="150" height="30" as="alternateBounds" />
          </mxGeometry>
        </mxCell>
        <mxCell id="wOlAUhnXYzGdByud8Wmd-69" value="" style="shape=tableRow;horizontal=0;startSize=0;swimlaneHead=0;swimlaneBody=0;fillColor=none;collapsible=0;dropTarget=0;points=[[0,0.5],[1,0.5]];portConstraint=eastwest;top=0;left=0;right=0;bottom=0;" vertex="1" parent="wOlAUhnXYzGdByud8Wmd-65">
          <mxGeometry y="60" width="150" height="30" as="geometry" />
        </mxCell>
        <mxCell id="wOlAUhnXYzGdByud8Wmd-71" value="Division" style="shape=partialRectangle;connectable=0;fillColor=none;top=0;left=0;bottom=0;right=0;align=left;spacingLeft=6;overflow=hidden;verticalAlign=middle;" vertex="1" parent="wOlAUhnXYzGdByud8Wmd-69">
          <mxGeometry width="150" height="30" as="geometry">
            <mxRectangle width="150" height="30" as="alternateBounds" />
          </mxGeometry>
        </mxCell>
        <mxCell id="wOlAUhnXYzGdByud8Wmd-116" style="shape=tableRow;horizontal=0;startSize=0;swimlaneHead=0;swimlaneBody=0;fillColor=none;collapsible=0;dropTarget=0;points=[[0,0.5],[1,0.5]];portConstraint=eastwest;top=0;left=0;right=0;bottom=0;" vertex="1" parent="wOlAUhnXYzGdByud8Wmd-65">
          <mxGeometry y="90" width="150" height="30" as="geometry" />
        </mxCell>
        <mxCell id="wOlAUhnXYzGdByud8Wmd-118" value="Location" style="shape=partialRectangle;connectable=0;fillColor=none;top=0;left=0;bottom=0;right=0;align=left;spacingLeft=6;overflow=hidden;" vertex="1" parent="wOlAUhnXYzGdByud8Wmd-116">
          <mxGeometry width="150" height="30" as="geometry">
            <mxRectangle width="150" height="30" as="alternateBounds" />
          </mxGeometry>
        </mxCell>
        <mxCell id="anhHfBrMtF6LiXp_QoXt-3" style="shape=tableRow;horizontal=0;startSize=0;swimlaneHead=0;swimlaneBody=0;fillColor=none;collapsible=0;dropTarget=0;points=[[0,0.5],[1,0.5]];portConstraint=eastwest;top=0;left=0;right=0;bottom=0;" vertex="1" parent="wOlAUhnXYzGdByud8Wmd-65">
          <mxGeometry y="120" width="150" height="30" as="geometry" />
        </mxCell>
        <mxCell id="anhHfBrMtF6LiXp_QoXt-5" value="Latitude" style="shape=partialRectangle;connectable=0;fillColor=none;top=0;left=0;bottom=0;right=0;align=left;spacingLeft=6;overflow=hidden;" vertex="1" parent="anhHfBrMtF6LiXp_QoXt-3">
          <mxGeometry width="150" height="30" as="geometry">
            <mxRectangle width="150" height="30" as="alternateBounds" />
          </mxGeometry>
        </mxCell>
        <mxCell id="anhHfBrMtF6LiXp_QoXt-6" style="shape=tableRow;horizontal=0;startSize=0;swimlaneHead=0;swimlaneBody=0;fillColor=none;collapsible=0;dropTarget=0;points=[[0,0.5],[1,0.5]];portConstraint=eastwest;top=0;left=0;right=0;bottom=0;" vertex="1" parent="wOlAUhnXYzGdByud8Wmd-65">
          <mxGeometry y="150" width="150" height="30" as="geometry" />
        </mxCell>
        <mxCell id="anhHfBrMtF6LiXp_QoXt-8" value="Longitude" style="shape=partialRectangle;connectable=0;fillColor=none;top=0;left=0;bottom=0;right=0;align=left;spacingLeft=6;overflow=hidden;" vertex="1" parent="anhHfBrMtF6LiXp_QoXt-6">
          <mxGeometry width="150" height="30" as="geometry">
            <mxRectangle width="150" height="30" as="alternateBounds" />
          </mxGeometry>
        </mxCell>
        <mxCell id="wOlAUhnXYzGdByud8Wmd-83" value="Weapon" style="shape=table;startSize=30;container=1;collapsible=1;childLayout=tableLayout;fixedRows=1;rowLines=0;fontStyle=1;align=center;resizeLast=1;" vertex="1" parent="1">
          <mxGeometry x="621" y="445" width="150" height="90" as="geometry" />
        </mxCell>
        <mxCell id="T8637z6zszp0V2nRVoMu-13" style="shape=tableRow;horizontal=0;startSize=0;swimlaneHead=0;swimlaneBody=0;fillColor=none;collapsible=0;dropTarget=0;points=[[0,0.5],[1,0.5]];portConstraint=eastwest;top=0;left=0;right=0;bottom=0;" vertex="1" parent="wOlAUhnXYzGdByud8Wmd-83">
          <mxGeometry y="30" width="150" height="30" as="geometry" />
        </mxCell>
        <mxCell id="T8637z6zszp0V2nRVoMu-14" value="WeaponId" style="shape=partialRectangle;connectable=0;fillColor=none;top=0;left=0;bottom=0;right=0;align=left;spacingLeft=6;overflow=hidden;fontStyle=5" vertex="1" parent="T8637z6zszp0V2nRVoMu-13">
          <mxGeometry width="150" height="30" as="geometry">
            <mxRectangle width="150" height="30" as="alternateBounds" />
          </mxGeometry>
        </mxCell>
        <mxCell id="wOlAUhnXYzGdByud8Wmd-87" value="" style="shape=tableRow;horizontal=0;startSize=0;swimlaneHead=0;swimlaneBody=0;fillColor=none;collapsible=0;dropTarget=0;points=[[0,0.5],[1,0.5]];portConstraint=eastwest;top=0;left=0;right=0;bottom=0;" vertex="1" parent="wOlAUhnXYzGdByud8Wmd-83">
          <mxGeometry y="60" width="150" height="30" as="geometry" />
        </mxCell>
        <mxCell id="wOlAUhnXYzGdByud8Wmd-89" value="WeaponDesc" style="shape=partialRectangle;connectable=0;fillColor=none;top=0;left=0;bottom=0;right=0;align=left;spacingLeft=6;overflow=hidden;" vertex="1" parent="wOlAUhnXYzGdByud8Wmd-87">
          <mxGeometry width="150" height="30" as="geometry">
            <mxRectangle width="150" height="30" as="alternateBounds" />
          </mxGeometry>
        </mxCell>
        <mxCell id="wOlAUhnXYzGdByud8Wmd-103" value="District" style="shape=table;startSize=30;container=1;collapsible=1;childLayout=tableLayout;fixedRows=1;rowLines=0;fontStyle=1;align=center;resizeLast=1;" vertex="1" parent="1">
          <mxGeometry x="50" y="455" width="150" height="90" as="geometry" />
        </mxCell>
        <mxCell id="T8637z6zszp0V2nRVoMu-9" style="shape=tableRow;horizontal=0;startSize=0;swimlaneHead=0;swimlaneBody=0;fillColor=none;collapsible=0;dropTarget=0;points=[[0,0.5],[1,0.5]];portConstraint=eastwest;top=0;left=0;right=0;bottom=0;" vertex="1" parent="wOlAUhnXYzGdByud8Wmd-103">
          <mxGeometry y="30" width="150" height="30" as="geometry" />
        </mxCell>
        <mxCell id="T8637z6zszp0V2nRVoMu-10" value="DistrictId" style="shape=partialRectangle;connectable=0;fillColor=none;top=0;left=0;bottom=0;right=0;align=left;spacingLeft=6;overflow=hidden;fontStyle=5" vertex="1" parent="T8637z6zszp0V2nRVoMu-9">
          <mxGeometry width="150" height="30" as="geometry">
            <mxRectangle width="150" height="30" as="alternateBounds" />
          </mxGeometry>
        </mxCell>
        <mxCell id="wOlAUhnXYzGdByud8Wmd-110" value="" style="shape=tableRow;horizontal=0;startSize=0;swimlaneHead=0;swimlaneBody=0;fillColor=none;collapsible=0;dropTarget=0;points=[[0,0.5],[1,0.5]];portConstraint=eastwest;top=0;left=0;right=0;bottom=0;" vertex="1" parent="wOlAUhnXYzGdByud8Wmd-103">
          <mxGeometry y="60" width="150" height="30" as="geometry" />
        </mxCell>
        <mxCell id="wOlAUhnXYzGdByud8Wmd-112" value="Bureau" style="shape=partialRectangle;connectable=0;fillColor=none;top=0;left=0;bottom=0;right=0;align=left;spacingLeft=6;overflow=hidden;" vertex="1" parent="wOlAUhnXYzGdByud8Wmd-110">
          <mxGeometry width="150" height="30" as="geometry">
            <mxRectangle width="150" height="30" as="alternateBounds" />
          </mxGeometry>
        </mxCell>
        <mxCell id="basBqJcQYh8-oAaQXVHO-19" value="Premise" style="shape=table;startSize=28;container=1;collapsible=1;childLayout=tableLayout;fixedRows=1;rowLines=0;fontStyle=1;align=center;resizeLast=1;" vertex="1" parent="1">
          <mxGeometry x="621" y="95" width="150" height="90" as="geometry" />
        </mxCell>
        <mxCell id="T8637z6zszp0V2nRVoMu-7" style="shape=tableRow;horizontal=0;startSize=0;swimlaneHead=0;swimlaneBody=0;fillColor=none;collapsible=0;dropTarget=0;points=[[0,0.5],[1,0.5]];portConstraint=eastwest;top=0;left=0;right=0;bottom=0;fontStyle=0" vertex="1" parent="basBqJcQYh8-oAaQXVHO-19">
          <mxGeometry y="28" width="150" height="30" as="geometry" />
        </mxCell>
        <mxCell id="T8637z6zszp0V2nRVoMu-8" value="PremiseId" style="shape=partialRectangle;connectable=0;fillColor=none;top=0;left=0;bottom=0;right=0;align=left;spacingLeft=6;overflow=hidden;fontStyle=5" vertex="1" parent="T8637z6zszp0V2nRVoMu-7">
          <mxGeometry width="150" height="30" as="geometry">
            <mxRectangle width="150" height="30" as="alternateBounds" />
          </mxGeometry>
        </mxCell>
        <mxCell id="basBqJcQYh8-oAaQXVHO-23" value="" style="shape=tableRow;horizontal=0;startSize=0;swimlaneHead=0;swimlaneBody=0;fillColor=none;collapsible=0;dropTarget=0;points=[[0,0.5],[1,0.5]];portConstraint=eastwest;top=0;left=0;right=0;bottom=0;" vertex="1" parent="basBqJcQYh8-oAaQXVHO-19">
          <mxGeometry y="58" width="150" height="30" as="geometry" />
        </mxCell>
        <mxCell id="basBqJcQYh8-oAaQXVHO-25" value="PremiseDesc" style="shape=partialRectangle;connectable=0;fillColor=none;top=0;left=0;bottom=0;right=0;align=left;spacingLeft=6;overflow=hidden;" vertex="1" parent="basBqJcQYh8-oAaQXVHO-23">
          <mxGeometry width="150" height="30" as="geometry">
            <mxRectangle width="150" height="30" as="alternateBounds" />
          </mxGeometry>
        </mxCell>
        <mxCell id="yv_-ww3aKOgj9KcJzgFZ-1" value="Record" style="shape=table;startSize=30;container=1;collapsible=1;childLayout=tableLayout;fixedRows=1;rowLines=0;fontStyle=1;align=center;resizeLast=1;" vertex="1" parent="1">
          <mxGeometry x="370" y="535" width="150" height="240" as="geometry" />
        </mxCell>
        <mxCell id="T8637z6zszp0V2nRVoMu-11" style="shape=tableRow;horizontal=0;startSize=0;swimlaneHead=0;swimlaneBody=0;fillColor=none;collapsible=0;dropTarget=0;points=[[0,0.5],[1,0.5]];portConstraint=eastwest;top=0;left=0;right=0;bottom=0;" vertex="1" parent="yv_-ww3aKOgj9KcJzgFZ-1">
          <mxGeometry y="30" width="150" height="30" as="geometry" />
        </mxCell>
        <mxCell id="T8637z6zszp0V2nRVoMu-12" value="RecordId" style="shape=partialRectangle;connectable=0;fillColor=none;top=0;left=0;bottom=0;right=0;align=left;spacingLeft=6;overflow=hidden;fontStyle=5" vertex="1" parent="T8637z6zszp0V2nRVoMu-11">
          <mxGeometry width="150" height="30" as="geometry">
            <mxRectangle width="150" height="30" as="alternateBounds" />
          </mxGeometry>
        </mxCell>
        <mxCell id="yv_-ww3aKOgj9KcJzgFZ-5" value="" style="shape=tableRow;horizontal=0;startSize=0;swimlaneHead=0;swimlaneBody=0;fillColor=none;collapsible=0;dropTarget=0;points=[[0,0.5],[1,0.5]];portConstraint=eastwest;top=0;left=0;right=0;bottom=0;" vertex="1" parent="yv_-ww3aKOgj9KcJzgFZ-1">
          <mxGeometry y="60" width="150" height="30" as="geometry" />
        </mxCell>
        <mxCell id="yv_-ww3aKOgj9KcJzgFZ-7" value="DateRptd" style="shape=partialRectangle;connectable=0;fillColor=none;top=0;left=0;bottom=0;right=0;align=left;spacingLeft=6;overflow=hidden;" vertex="1" parent="yv_-ww3aKOgj9KcJzgFZ-5">
          <mxGeometry width="150" height="30" as="geometry">
            <mxRectangle width="150" height="30" as="alternateBounds" />
          </mxGeometry>
        </mxCell>
        <mxCell id="yv_-ww3aKOgj9KcJzgFZ-8" value="" style="shape=tableRow;horizontal=0;startSize=0;swimlaneHead=0;swimlaneBody=0;fillColor=none;collapsible=0;dropTarget=0;points=[[0,0.5],[1,0.5]];portConstraint=eastwest;top=0;left=0;right=0;bottom=0;" vertex="1" parent="yv_-ww3aKOgj9KcJzgFZ-1">
          <mxGeometry y="90" width="150" height="30" as="geometry" />
        </mxCell>
        <mxCell id="yv_-ww3aKOgj9KcJzgFZ-10" value="DateOcc" style="shape=partialRectangle;connectable=0;fillColor=none;top=0;left=0;bottom=0;right=0;align=left;spacingLeft=6;overflow=hidden;" vertex="1" parent="yv_-ww3aKOgj9KcJzgFZ-8">
          <mxGeometry width="150" height="30" as="geometry">
            <mxRectangle width="150" height="30" as="alternateBounds" />
          </mxGeometry>
        </mxCell>
        <mxCell id="yv_-ww3aKOgj9KcJzgFZ-11" value="" style="shape=tableRow;horizontal=0;startSize=0;swimlaneHead=0;swimlaneBody=0;fillColor=none;collapsible=0;dropTarget=0;points=[[0,0.5],[1,0.5]];portConstraint=eastwest;top=0;left=0;right=0;bottom=0;" vertex="1" parent="yv_-ww3aKOgj9KcJzgFZ-1">
          <mxGeometry y="120" width="150" height="30" as="geometry" />
        </mxCell>
        <mxCell id="yv_-ww3aKOgj9KcJzgFZ-13" value="TimeOcc" style="shape=partialRectangle;connectable=0;fillColor=none;top=0;left=0;bottom=0;right=0;align=left;spacingLeft=6;overflow=hidden;" vertex="1" parent="yv_-ww3aKOgj9KcJzgFZ-11">
          <mxGeometry width="150" height="30" as="geometry">
            <mxRectangle width="150" height="30" as="alternateBounds" />
          </mxGeometry>
        </mxCell>
        <mxCell id="yv_-ww3aKOgj9KcJzgFZ-20" style="shape=tableRow;horizontal=0;startSize=0;swimlaneHead=0;swimlaneBody=0;fillColor=none;collapsible=0;dropTarget=0;points=[[0,0.5],[1,0.5]];portConstraint=eastwest;top=0;left=0;right=0;bottom=0;" vertex="1" parent="yv_-ww3aKOgj9KcJzgFZ-1">
          <mxGeometry y="150" width="150" height="30" as="geometry" />
        </mxCell>
        <mxCell id="yv_-ww3aKOgj9KcJzgFZ-22" value="Location" style="shape=partialRectangle;connectable=0;fillColor=none;top=0;left=0;bottom=0;right=0;align=left;spacingLeft=6;overflow=hidden;" vertex="1" parent="yv_-ww3aKOgj9KcJzgFZ-20">
          <mxGeometry width="150" height="30" as="geometry">
            <mxRectangle width="150" height="30" as="alternateBounds" />
          </mxGeometry>
        </mxCell>
        <mxCell id="yv_-ww3aKOgj9KcJzgFZ-17" style="shape=tableRow;horizontal=0;startSize=0;swimlaneHead=0;swimlaneBody=0;fillColor=none;collapsible=0;dropTarget=0;points=[[0,0.5],[1,0.5]];portConstraint=eastwest;top=0;left=0;right=0;bottom=0;" vertex="1" parent="yv_-ww3aKOgj9KcJzgFZ-1">
          <mxGeometry y="180" width="150" height="30" as="geometry" />
        </mxCell>
        <mxCell id="yv_-ww3aKOgj9KcJzgFZ-19" value="Latitude" style="shape=partialRectangle;connectable=0;fillColor=none;top=0;left=0;bottom=0;right=0;align=left;spacingLeft=6;overflow=hidden;" vertex="1" parent="yv_-ww3aKOgj9KcJzgFZ-17">
          <mxGeometry width="150" height="30" as="geometry">
            <mxRectangle width="150" height="30" as="alternateBounds" />
          </mxGeometry>
        </mxCell>
        <mxCell id="yv_-ww3aKOgj9KcJzgFZ-14" style="shape=tableRow;horizontal=0;startSize=0;swimlaneHead=0;swimlaneBody=0;fillColor=none;collapsible=0;dropTarget=0;points=[[0,0.5],[1,0.5]];portConstraint=eastwest;top=0;left=0;right=0;bottom=0;" vertex="1" parent="yv_-ww3aKOgj9KcJzgFZ-1">
          <mxGeometry y="210" width="150" height="30" as="geometry" />
        </mxCell>
        <mxCell id="yv_-ww3aKOgj9KcJzgFZ-16" value="Longitude" style="shape=partialRectangle;connectable=0;fillColor=none;top=0;left=0;bottom=0;right=0;align=left;spacingLeft=6;overflow=hidden;" vertex="1" parent="yv_-ww3aKOgj9KcJzgFZ-14">
          <mxGeometry width="150" height="30" as="geometry">
            <mxRectangle width="150" height="30" as="alternateBounds" />
          </mxGeometry>
        </mxCell>
        <mxCell id="T8637z6zszp0V2nRVoMu-23" value="" style="endArrow=none;html=1;edgeStyle=orthogonalEdgeStyle;rounded=0;exitX=0.48;exitY=1;exitDx=0;exitDy=0;exitPerimeter=0;entryX=0.5;entryY=0;entryDx=0;entryDy=0;" edge="1" parent="1" source="anhHfBrMtF6LiXp_QoXt-6" target="wOlAUhnXYzGdByud8Wmd-103">
          <mxGeometry relative="1" as="geometry">
            <mxPoint x="120" y="275" as="sourcePoint" />
            <mxPoint x="230" y="395" as="targetPoint" />
          </mxGeometry>
        </mxCell>
        <mxCell id="T8637z6zszp0V2nRVoMu-24" value="1..1" style="edgeLabel;resizable=0;html=1;align=left;verticalAlign=bottom;" connectable="0" vertex="1" parent="T8637z6zszp0V2nRVoMu-23">
          <mxGeometry x="-1" relative="1" as="geometry">
            <mxPoint x="5" y="26" as="offset" />
          </mxGeometry>
        </mxCell>
        <mxCell id="T8637z6zszp0V2nRVoMu-25" value="1..*" style="edgeLabel;resizable=0;html=1;align=right;verticalAlign=bottom;" connectable="0" vertex="1" parent="T8637z6zszp0V2nRVoMu-23">
          <mxGeometry x="1" relative="1" as="geometry">
            <mxPoint x="26" y="-4" as="offset" />
          </mxGeometry>
        </mxCell>
        <mxCell id="T8637z6zszp0V2nRVoMu-26" value="managed by" style="text;align=center;fontStyle=1;verticalAlign=middle;spacingLeft=3;spacingRight=3;strokeColor=none;rotatable=0;points=[[0,0.5],[1,0.5]];portConstraint=eastwest;html=1;" vertex="1" parent="1">
          <mxGeometry x="130" y="345" width="80" height="26" as="geometry" />
        </mxCell>
        <mxCell id="T8637z6zszp0V2nRVoMu-27" value="" style="endArrow=none;html=1;edgeStyle=orthogonalEdgeStyle;rounded=0;exitX=0.5;exitY=1;exitDx=0;exitDy=0;exitPerimeter=0;entryX=0;entryY=0.5;entryDx=0;entryDy=0;" edge="1" parent="1" source="wOlAUhnXYzGdByud8Wmd-110" target="yv_-ww3aKOgj9KcJzgFZ-17">
          <mxGeometry relative="1" as="geometry">
            <mxPoint x="127.5" y="595" as="sourcePoint" />
            <mxPoint x="127.5" y="787" as="targetPoint" />
          </mxGeometry>
        </mxCell>
        <mxCell id="T8637z6zszp0V2nRVoMu-28" value="1..1" style="edgeLabel;resizable=0;html=1;align=left;verticalAlign=bottom;" connectable="0" vertex="1" parent="T8637z6zszp0V2nRVoMu-27">
          <mxGeometry x="-1" relative="1" as="geometry">
            <mxPoint x="4" y="24" as="offset" />
          </mxGeometry>
        </mxCell>
        <mxCell id="T8637z6zszp0V2nRVoMu-29" value="0..*" style="edgeLabel;resizable=0;html=1;align=right;verticalAlign=bottom;" connectable="0" vertex="1" parent="T8637z6zszp0V2nRVoMu-27">
          <mxGeometry x="1" relative="1" as="geometry">
            <mxPoint x="-10" y="-4" as="offset" />
          </mxGeometry>
        </mxCell>
        <mxCell id="T8637z6zszp0V2nRVoMu-30" value="reported in" style="text;align=center;fontStyle=1;verticalAlign=middle;spacingLeft=3;spacingRight=3;strokeColor=none;rotatable=0;points=[[0,0.5],[1,0.5]];portConstraint=eastwest;html=1;" vertex="1" parent="1">
          <mxGeometry x="210" y="700" width="80" height="26" as="geometry" />
        </mxCell>
        <mxCell id="T8637z6zszp0V2nRVoMu-31" value="" style="endArrow=none;html=1;edgeStyle=orthogonalEdgeStyle;rounded=0;entryX=0.5;entryY=1;entryDx=0;entryDy=0;entryPerimeter=0;exitX=0.5;exitY=0;exitDx=0;exitDy=0;" edge="1" parent="1" source="wOlAUhnXYzGdByud8Wmd-1" target="yv_-ww3aKOgj9KcJzgFZ-14">
          <mxGeometry relative="1" as="geometry">
            <mxPoint x="160" y="840" as="sourcePoint" />
            <mxPoint x="410" y="800" as="targetPoint" />
            <Array as="points" />
          </mxGeometry>
        </mxCell>
        <mxCell id="T8637z6zszp0V2nRVoMu-32" value="1..1" style="edgeLabel;resizable=0;html=1;align=left;verticalAlign=bottom;" connectable="0" vertex="1" parent="T8637z6zszp0V2nRVoMu-31">
          <mxGeometry x="-1" relative="1" as="geometry">
            <mxPoint x="5" y="-2" as="offset" />
          </mxGeometry>
        </mxCell>
        <mxCell id="T8637z6zszp0V2nRVoMu-33" value="0..*" style="edgeLabel;resizable=0;html=1;align=right;verticalAlign=bottom;" connectable="0" vertex="1" parent="T8637z6zszp0V2nRVoMu-31">
          <mxGeometry x="1" relative="1" as="geometry">
            <mxPoint x="27" y="21" as="offset" />
          </mxGeometry>
        </mxCell>
        <mxCell id="T8637z6zszp0V2nRVoMu-34" value="provided by" style="text;align=center;fontStyle=1;verticalAlign=middle;spacingLeft=3;spacingRight=3;strokeColor=none;rotatable=0;points=[[0,0.5],[1,0.5]];portConstraint=eastwest;html=1;" vertex="1" parent="1">
          <mxGeometry x="450" y="810" width="80" height="26" as="geometry" />
        </mxCell>
        <mxCell id="T8637z6zszp0V2nRVoMu-40" value="" style="endArrow=none;html=1;edgeStyle=orthogonalEdgeStyle;rounded=0;exitX=1;exitY=0.5;exitDx=0;exitDy=0;entryX=0.5;entryY=1;entryDx=0;entryDy=0;entryPerimeter=0;" edge="1" parent="1" source="T8637z6zszp0V2nRVoMu-11" target="wOlAUhnXYzGdByud8Wmd-87">
          <mxGeometry relative="1" as="geometry">
            <mxPoint x="540" y="455" as="sourcePoint" />
            <mxPoint x="696" y="538" as="targetPoint" />
            <Array as="points">
              <mxPoint x="696" y="580" />
            </Array>
          </mxGeometry>
        </mxCell>
        <mxCell id="T8637z6zszp0V2nRVoMu-41" value="0..*" style="edgeLabel;resizable=0;html=1;align=left;verticalAlign=bottom;" connectable="0" vertex="1" parent="T8637z6zszp0V2nRVoMu-40">
          <mxGeometry x="-1" relative="1" as="geometry">
            <mxPoint x="5" y="-4" as="offset" />
          </mxGeometry>
        </mxCell>
        <mxCell id="T8637z6zszp0V2nRVoMu-42" value="0..1" style="edgeLabel;resizable=0;html=1;align=right;verticalAlign=bottom;" connectable="0" vertex="1" parent="T8637z6zszp0V2nRVoMu-40">
          <mxGeometry x="1" relative="1" as="geometry">
            <mxPoint x="27" y="21" as="offset" />
          </mxGeometry>
        </mxCell>
        <mxCell id="T8637z6zszp0V2nRVoMu-43" value="" style="endArrow=none;html=1;edgeStyle=orthogonalEdgeStyle;rounded=0;exitX=0.5;exitY=0;exitDx=0;exitDy=0;entryX=0.5;entryY=1;entryDx=0;entryDy=0;" edge="1" parent="1" source="yv_-ww3aKOgj9KcJzgFZ-1" target="basBqJcQYh8-oAaQXVHO-19">
          <mxGeometry relative="1" as="geometry">
            <mxPoint x="490" y="371" as="sourcePoint" />
            <mxPoint x="671" y="556" as="targetPoint" />
            <Array as="points">
              <mxPoint x="440" y="355" />
              <mxPoint x="696" y="355" />
            </Array>
          </mxGeometry>
        </mxCell>
        <mxCell id="T8637z6zszp0V2nRVoMu-44" value="0..*" style="edgeLabel;resizable=0;html=1;align=left;verticalAlign=bottom;" connectable="0" vertex="1" parent="T8637z6zszp0V2nRVoMu-43">
          <mxGeometry x="-1" relative="1" as="geometry">
            <mxPoint x="4" y="-5" as="offset" />
          </mxGeometry>
        </mxCell>
        <mxCell id="T8637z6zszp0V2nRVoMu-45" value="0..1" style="edgeLabel;resizable=0;html=1;align=right;verticalAlign=bottom;" connectable="0" vertex="1" parent="T8637z6zszp0V2nRVoMu-43">
          <mxGeometry x="1" relative="1" as="geometry">
            <mxPoint x="26" y="22" as="offset" />
          </mxGeometry>
        </mxCell>
        <mxCell id="T8637z6zszp0V2nRVoMu-46" value="use" style="text;align=center;fontStyle=1;verticalAlign=middle;spacingLeft=3;spacingRight=3;strokeColor=none;rotatable=0;points=[[0,0.5],[1,0.5]];portConstraint=eastwest;html=1;" vertex="1" parent="1">
          <mxGeometry x="571" y="553" width="80" height="26" as="geometry" />
        </mxCell>
        <mxCell id="T8637z6zszp0V2nRVoMu-47" value="occur in" style="text;align=center;fontStyle=1;verticalAlign=middle;spacingLeft=3;spacingRight=3;strokeColor=none;rotatable=0;points=[[0,0.5],[1,0.5]];portConstraint=eastwest;html=1;" vertex="1" parent="1">
          <mxGeometry x="541" y="329" width="80" height="26" as="geometry" />
        </mxCell>
        <mxCell id="T8637z6zszp0V2nRVoMu-52" value="" style="endArrow=none;html=1;edgeStyle=orthogonalEdgeStyle;rounded=0;entryX=0.5;entryY=1;entryDx=0;entryDy=0;entryPerimeter=0;exitX=0;exitY=0.052;exitDx=0;exitDy=0;exitPerimeter=0;" edge="1" parent="1" source="yv_-ww3aKOgj9KcJzgFZ-1" target="wOlAUhnXYzGdByud8Wmd-98">
          <mxGeometry relative="1" as="geometry">
            <mxPoint x="280" y="630" as="sourcePoint" />
            <mxPoint x="330" y="275" as="targetPoint" />
            <Array as="points">
              <mxPoint x="370" y="550" />
              <mxPoint x="280" y="550" />
              <mxPoint x="280" y="355" />
              <mxPoint x="395" y="355" />
            </Array>
          </mxGeometry>
        </mxCell>
        <mxCell id="T8637z6zszp0V2nRVoMu-53" value="0..*" style="edgeLabel;resizable=0;html=1;align=left;verticalAlign=bottom;" connectable="0" vertex="1" parent="T8637z6zszp0V2nRVoMu-52">
          <mxGeometry x="-1" relative="1" as="geometry">
            <mxPoint x="-25" y="-9" as="offset" />
          </mxGeometry>
        </mxCell>
        <mxCell id="T8637z6zszp0V2nRVoMu-54" value="0..1" style="edgeLabel;resizable=0;html=1;align=right;verticalAlign=bottom;" connectable="0" vertex="1" parent="T8637z6zszp0V2nRVoMu-52">
          <mxGeometry x="1" relative="1" as="geometry">
            <mxPoint x="26" y="22" as="offset" />
          </mxGeometry>
        </mxCell>
        <mxCell id="T8637z6zszp0V2nRVoMu-55" value="crime type" style="text;align=center;fontStyle=1;verticalAlign=middle;spacingLeft=3;spacingRight=3;strokeColor=none;rotatable=0;points=[[0,0.5],[1,0.5]];portConstraint=eastwest;html=1;" vertex="1" parent="1">
          <mxGeometry x="300" y="329" width="80" height="26" as="geometry" />
        </mxCell>
        <mxCell id="n1FVQXHWe5sQYGBVXQj9-1" value="Victim" style="shape=table;startSize=30;container=1;collapsible=1;childLayout=tableLayout;fixedRows=1;rowLines=0;fontStyle=1;align=center;resizeLast=1;" vertex="1" parent="1">
          <mxGeometry x="621" y="715" width="150" height="150" as="geometry" />
        </mxCell>
        <mxCell id="n1FVQXHWe5sQYGBVXQj9-2" style="shape=tableRow;horizontal=0;startSize=0;swimlaneHead=0;swimlaneBody=0;fillColor=none;collapsible=0;dropTarget=0;points=[[0,0.5],[1,0.5]];portConstraint=eastwest;top=0;left=0;right=0;bottom=0;" vertex="1" parent="n1FVQXHWe5sQYGBVXQj9-1">
          <mxGeometry y="30" width="150" height="30" as="geometry" />
        </mxCell>
        <mxCell id="n1FVQXHWe5sQYGBVXQj9-3" value="VictimId" style="shape=partialRectangle;connectable=0;fillColor=none;top=0;left=0;bottom=0;right=0;align=left;spacingLeft=6;overflow=hidden;fontStyle=5" vertex="1" parent="n1FVQXHWe5sQYGBVXQj9-2">
          <mxGeometry width="150" height="30" as="geometry">
            <mxRectangle width="150" height="30" as="alternateBounds" />
          </mxGeometry>
        </mxCell>
        <mxCell id="n1FVQXHWe5sQYGBVXQj9-4" value="" style="shape=tableRow;horizontal=0;startSize=0;swimlaneHead=0;swimlaneBody=0;fillColor=none;collapsible=0;dropTarget=0;points=[[0,0.5],[1,0.5]];portConstraint=eastwest;top=0;left=0;right=0;bottom=0;" vertex="1" parent="n1FVQXHWe5sQYGBVXQj9-1">
          <mxGeometry y="60" width="150" height="30" as="geometry" />
        </mxCell>
        <mxCell id="n1FVQXHWe5sQYGBVXQj9-5" value="Age" style="shape=partialRectangle;connectable=0;fillColor=none;top=0;left=0;bottom=0;right=0;align=left;spacingLeft=6;overflow=hidden;" vertex="1" parent="n1FVQXHWe5sQYGBVXQj9-4">
          <mxGeometry width="150" height="30" as="geometry">
            <mxRectangle width="150" height="30" as="alternateBounds" />
          </mxGeometry>
        </mxCell>
        <mxCell id="n1FVQXHWe5sQYGBVXQj9-8" style="shape=tableRow;horizontal=0;startSize=0;swimlaneHead=0;swimlaneBody=0;fillColor=none;collapsible=0;dropTarget=0;points=[[0,0.5],[1,0.5]];portConstraint=eastwest;top=0;left=0;right=0;bottom=0;" vertex="1" parent="n1FVQXHWe5sQYGBVXQj9-1">
          <mxGeometry y="90" width="150" height="30" as="geometry" />
        </mxCell>
        <mxCell id="n1FVQXHWe5sQYGBVXQj9-9" value="Sex" style="shape=partialRectangle;connectable=0;fillColor=none;top=0;left=0;bottom=0;right=0;align=left;spacingLeft=6;overflow=hidden;" vertex="1" parent="n1FVQXHWe5sQYGBVXQj9-8">
          <mxGeometry width="150" height="30" as="geometry">
            <mxRectangle width="150" height="30" as="alternateBounds" />
          </mxGeometry>
        </mxCell>
        <mxCell id="n1FVQXHWe5sQYGBVXQj9-6" style="shape=tableRow;horizontal=0;startSize=0;swimlaneHead=0;swimlaneBody=0;fillColor=none;collapsible=0;dropTarget=0;points=[[0,0.5],[1,0.5]];portConstraint=eastwest;top=0;left=0;right=0;bottom=0;" vertex="1" parent="n1FVQXHWe5sQYGBVXQj9-1">
          <mxGeometry y="120" width="150" height="30" as="geometry" />
        </mxCell>
        <mxCell id="n1FVQXHWe5sQYGBVXQj9-7" value="Descent" style="shape=partialRectangle;connectable=0;fillColor=none;top=0;left=0;bottom=0;right=0;align=left;spacingLeft=6;overflow=hidden;" vertex="1" parent="n1FVQXHWe5sQYGBVXQj9-6">
          <mxGeometry width="150" height="30" as="geometry">
            <mxRectangle width="150" height="30" as="alternateBounds" />
          </mxGeometry>
        </mxCell>
        <mxCell id="n1FVQXHWe5sQYGBVXQj9-10" value="" style="endArrow=none;html=1;edgeStyle=orthogonalEdgeStyle;rounded=0;exitX=1;exitY=0.5;exitDx=0;exitDy=0;entryX=0.5;entryY=0;entryDx=0;entryDy=0;" edge="1" parent="1" source="yv_-ww3aKOgj9KcJzgFZ-8" target="n1FVQXHWe5sQYGBVXQj9-1">
          <mxGeometry relative="1" as="geometry">
            <mxPoint x="523" y="624" as="sourcePoint" />
            <mxPoint x="699" y="579" as="targetPoint" />
            <Array as="points">
              <mxPoint x="520" y="624" />
              <mxPoint x="696" y="624" />
            </Array>
          </mxGeometry>
        </mxCell>
        <mxCell id="n1FVQXHWe5sQYGBVXQj9-11" value="1..1" style="edgeLabel;resizable=0;html=1;align=left;verticalAlign=bottom;" connectable="0" vertex="1" parent="n1FVQXHWe5sQYGBVXQj9-10">
          <mxGeometry x="-1" relative="1" as="geometry">
            <mxPoint x="5" y="-20" as="offset" />
          </mxGeometry>
        </mxCell>
        <mxCell id="n1FVQXHWe5sQYGBVXQj9-12" value="1..1" style="edgeLabel;resizable=0;html=1;align=right;verticalAlign=bottom;" connectable="0" vertex="1" parent="n1FVQXHWe5sQYGBVXQj9-10">
          <mxGeometry x="1" relative="1" as="geometry">
            <mxPoint x="29" y="-5" as="offset" />
          </mxGeometry>
        </mxCell>
        <mxCell id="n1FVQXHWe5sQYGBVXQj9-13" value="affect" style="text;align=center;fontStyle=1;verticalAlign=middle;spacingLeft=3;spacingRight=3;strokeColor=none;rotatable=0;points=[[0,0.5],[1,0.5]];portConstraint=eastwest;html=1;" vertex="1" parent="1">
          <mxGeometry x="571" y="630" width="80" height="26" as="geometry" />
        </mxCell>
      </root>
    </mxGraphModel>
  </diagram>
</mxfile>
